<?xml version="1.0" encoding="iso-8859-1"?>
<!-- Generator: Adobe Illustrator 19.0.0, SVG Export Plug-In . SVG Version: 6.00 Build 0)  -->
<svg xmlns="http://www.w3.org/2000/svg" xmlns:xlink="http://www.w3.org/1999/xlink" version="1.1" id="Capa_1" x="0px" y="0px" viewBox="0 0 480 480" style="enable-background:new 0 0 480 480;" xml:space="preserve" width="512px" height="512px">
<g>
	<g>
		<path d="M472,272H368V8c0-4.416-3.584-8-8-8H64c-4.416,0-8,3.584-8,8v32H8c-4.416,0-8,3.584-8,8v424c0,4.416,3.584,8,8,8h288h176    c4.416,0,8-3.584,8-8V280C480,275.584,476.416,272,472,272z M72,16h280v256h-40V48c0-4.416-3.584-8-8-8H72V16z M296,272    c-4.416,0-8,3.584-8,8v184H16V56h48h232V272z M464,464H304V288h56h104V464z" fill="#f0542d"/>
	</g>
</g>
<g>
	<g>
		<path d="M432,304h-96c-4.416,0-8,3.584-8,8v32c0,4.416,3.584,8,8,8h96c4.416,0,8-3.584,8-8v-32C440,307.584,436.416,304,432,304z     M424,336h-80v-16h80V336z" fill="#f0542d"/>
	</g>
</g>
<g>
	<g>
		<rect x="328" y="368" width="16" height="16" fill="#f0542d"/>
	</g>
</g>
<g>
	<g>
		<rect x="360" y="368" width="16" height="16" fill="#f0542d"/>
	</g>
</g>
<g>
	<g>
		<rect x="392" y="368" width="16" height="16" fill="#f0542d"/>
	</g>
</g>
<g>
	<g>
		<rect x="424" y="368" width="16" height="16" fill="#f0542d"/>
	</g>
</g>
<g>
	<g>
		<rect x="328" y="400" width="16" height="16" fill="#f0542d"/>
	</g>
</g>
<g>
	<g>
		<rect x="360" y="400" width="16" height="16" fill="#f0542d"/>
	</g>
</g>
<g>
	<g>
		<rect x="392" y="400" width="16" height="16" fill="#f0542d"/>
	</g>
</g>
<g>
	<g>
		<rect x="424" y="400" width="16" height="16" fill="#f0542d"/>
	</g>
</g>
<g>
	<g>
		<rect x="328" y="432" width="16" height="16" fill="#f0542d"/>
	</g>
</g>
<g>
	<g>
		<rect x="360" y="432" width="16" height="16" fill="#f0542d"/>
	</g>
</g>
<g>
	<g>
		<rect x="392" y="432" width="16" height="16" fill="#f0542d"/>
	</g>
</g>
<g>
	<g>
		<rect x="424" y="432" width="16" height="16" fill="#f0542d"/>
	</g>
</g>
<g>
	<g>
		<path d="M168,400h-24v-32c0-4.416-3.584-8-8-8h-24v-56c0-4.416-3.584-8-8-8H72c-4.416,0-8,3.584-8,8v40H40c-4.416,0-8,3.584-8,8    v88c0,4.416,3.584,8,8,8h32h32h32h32c4.416,0,8-3.584,8-8v-32C176,403.584,172.416,400,168,400z M64,432H48v-72h16V432z M96,368    v64H80v-80v-40h16V368z M128,408v24h-16v-56h16V408z M160,432h-16v-16h16V432z" fill="#f0542d"/>
	</g>
</g>
<g>
	<g>
		<path d="M88,168c-30.88,0-56,25.12-56,56c0,1.904,0.104,3.8,0.288,5.672c0.032,0.288,0.096,0.576,0.128,0.864    c0.184,1.592,0.408,3.168,0.72,4.728c0.008,0.048,0.024,0.104,0.04,0.152c2.184,10.6,7.392,20.352,15.224,28.184    c0.04,0.04,0.096,0.056,0.144,0.096C58.672,273.76,72.624,280,88,280s29.328-6.24,39.456-16.312    c0.04-0.04,0.096-0.056,0.144-0.096c7.832-7.832,13.04-17.584,15.224-28.184c0.008-0.048,0.024-0.104,0.04-0.152    c0.32-1.56,0.536-3.136,0.72-4.728c0.032-0.288,0.096-0.568,0.128-0.864C143.896,227.8,144,225.904,144,224    C144,193.12,118.88,168,88,168z M88,216c4.408,0,8,3.592,8,8c0,1.096-0.224,2.144-0.624,3.096c-0.256,0.6-0.696,1.104-1.096,1.64    C92.816,230.664,90.608,232,88,232c-2.68,0-4.944-1.416-6.4-3.448c-0.344-0.48-0.752-0.92-0.976-1.456    c-0.4-0.952-0.624-2-0.624-3.096C80,219.592,83.592,216,88,216z M51.376,239.968c-0.192-0.44-0.336-0.888-0.512-1.336    c-0.704-1.784-1.272-3.624-1.72-5.52c-0.144-0.608-0.296-1.216-0.408-1.84C48.296,228.912,48,226.488,48,224    c0-2.6,0.288-5.136,0.768-7.6c0.16-0.816,0.44-1.576,0.64-2.368c0.416-1.616,0.872-3.216,1.48-4.752    c0.352-0.88,0.792-1.712,1.2-2.568c0.656-1.352,1.352-2.688,2.144-3.952c0.52-0.824,1.088-1.616,1.672-2.408    c0.872-1.176,1.792-2.304,2.784-3.376c0.664-0.712,1.328-1.416,2.04-2.088c1.08-1.016,2.248-1.944,3.44-2.832    c0.752-0.56,1.48-1.144,2.272-1.656c1.36-0.872,2.8-1.608,4.264-2.32c0.736-0.36,1.432-0.776,2.192-1.088    c2.136-0.88,4.36-1.576,6.664-2.072c0.144-0.032,0.272-0.096,0.416-0.128c0.008,0,0.016,0,0.024,0v16.56    c-0.272,0.096-0.512,0.24-0.776,0.344c-0.448,0.176-0.872,0.376-1.304,0.576c-0.896,0.416-1.752,0.88-2.576,1.4    c-0.392,0.248-0.784,0.48-1.16,0.744c-0.952,0.672-1.84,1.416-2.68,2.216c-0.176,0.168-0.376,0.304-0.544,0.48    c-0.984,0.992-1.864,2.072-2.664,3.224c-0.224,0.32-0.4,0.664-0.608,1c-0.544,0.872-1.04,1.768-1.472,2.712    c-0.2,0.44-0.384,0.88-0.552,1.328c-0.36,0.936-0.656,1.896-0.896,2.888c-0.104,0.44-0.232,0.864-0.32,1.312    C64.176,221.024,64,222.488,64,224c0,1.744,0.208,3.432,0.56,5.072c0.136,0.624,0.384,1.2,0.56,1.808    c0.296,0.992,0.592,1.976,1.008,2.904c0.08,0.184,0.112,0.384,0.2,0.568l-11.664,11.672    C53.4,244.112,52.304,242.088,51.376,239.968z M88,264c-8.136,0-15.696-2.472-22.024-6.664l11.744-11.744    C80.848,247.096,84.304,248,88,248s7.152-0.904,10.28-2.408l11.744,11.744C103.696,261.528,96.136,264,88,264z M127.264,231.272    c-0.112,0.616-0.264,1.224-0.408,1.84c-0.448,1.896-1.016,3.736-1.72,5.52c-0.176,0.44-0.32,0.896-0.512,1.336    c-0.928,2.12-2.024,4.144-3.288,6.056l-11.672-11.672c0.08-0.176,0.112-0.368,0.192-0.544c0.432-0.96,0.736-1.976,1.04-2.992    c0.176-0.584,0.416-1.144,0.544-1.744c0.352-1.64,0.56-3.328,0.56-5.072c0-1.512-0.176-2.976-0.448-4.408    c-0.08-0.448-0.208-0.872-0.32-1.312c-0.24-0.984-0.536-1.952-0.896-2.88c-0.176-0.456-0.352-0.896-0.56-1.336    c-0.432-0.936-0.928-1.832-1.472-2.704c-0.208-0.336-0.384-0.68-0.608-1c-0.8-1.152-1.68-2.232-2.664-3.224    c-0.168-0.176-0.368-0.312-0.544-0.48c-0.84-0.8-1.728-1.544-2.68-2.216c-0.376-0.264-0.768-0.496-1.16-0.744    c-0.824-0.52-1.68-0.984-2.576-1.4c-0.432-0.2-0.856-0.4-1.304-0.584c-0.264-0.104-0.504-0.248-0.776-0.344v-16.56    c0.008,0,0.016,0,0.024,0c0.144,0.032,0.272,0.096,0.416,0.128c2.304,0.496,4.528,1.2,6.664,2.072    c0.76,0.312,1.456,0.728,2.192,1.088c1.464,0.712,2.912,1.448,4.272,2.32c0.792,0.512,1.52,1.088,2.272,1.656    c1.192,0.896,2.352,1.824,3.44,2.84c0.712,0.664,1.376,1.368,2.04,2.088c0.992,1.072,1.92,2.2,2.784,3.376    c0.576,0.784,1.144,1.576,1.672,2.408c0.8,1.264,1.496,2.6,2.144,3.952c0.408,0.848,0.848,1.68,1.2,2.56    c0.608,1.536,1.064,3.136,1.48,4.76c0.208,0.792,0.48,1.552,0.64,2.368c0.48,2.44,0.768,4.976,0.768,7.576    C128,226.488,127.704,228.912,127.264,231.272z" fill="#f0542d"/>
	</g>
</g>
<g>
	<g>
		<rect x="32" y="72" width="136" height="16" fill="#f0542d"/>
	</g>
</g>
<g>
	<g>
		<rect x="32" y="104" width="240" height="16" fill="#f0542d"/>
	</g>
</g>
<g>
	<g>
		<path d="M264,176h-48c-4.416,0-8,3.584-8,8v224c0,1.728,0.56,3.416,1.6,4.8l24,32c1.504,2.016,3.88,3.2,6.4,3.2    c2.52,0,4.888-1.184,6.4-3.2l24-32c1.04-1.384,1.6-3.072,1.6-4.8V184C272,179.584,268.416,176,264,176z M240,426.664L226,408h28    L240,426.664z M256,392h-32V232h32V392z M256,216h-32v-24h32V216z" fill="#f0542d"/>
	</g>
</g>
<g>
</g>
<g>
</g>
<g>
</g>
<g>
</g>
<g>
</g>
<g>
</g>
<g>
</g>
<g>
</g>
<g>
</g>
<g>
</g>
<g>
</g>
<g>
</g>
<g>
</g>
<g>
</g>
<g>
</g>
</svg>
