<?xml version="1.0" encoding="iso-8859-1"?>
<!-- Generator: Adobe Illustrator 19.0.0, SVG Export Plug-In . SVG Version: 6.00 Build 0)  -->
<svg xmlns="http://www.w3.org/2000/svg" xmlns:xlink="http://www.w3.org/1999/xlink" version="1.1" id="Capa_1" x="0px" y="0px" viewBox="0 0 480 480" style="enable-background:new 0 0 480 480;" xml:space="preserve" width="512px" height="512px">
<g>
	<g>
		<path d="M461.076,200h-56v-49.472c9.288-3.312,16-12.112,16-22.528c0-13.232-10.768-24-24-24s-24,10.768-24,24    c0,10.416,6.712,19.216,16,22.528V200h-80V64V8c0-4.424-3.576-8-8-8h-128c-4.424,0-8,3.576-8,8v56v136h-80v-48h33.416    c16.864,0,30.584-14.352,30.584-32c0-15.144-10.112-27.864-23.632-31.168c-3.192-10.608-13.728-18.136-24.712-16.664    C94.852,57.744,81.3,48,65.78,48c-21.016,0-38.12,17.944-38.12,40c0,0.368,0.008,0.736,0.032,1.104    C14.676,92.784,5.076,105.232,5.076,120c0,17.648,13.72,32,30.584,32h33.416v48h-56c-4.424,0-8,3.576-8,8v264c0,4.424,3.576,8,8,8    h32h96h32h32h64h32h32h96h32c4.424,0,8-3.576,8-8V208C469.076,203.576,465.5,200,461.076,200z M35.66,136    c-8.04,0-14.584-7.176-14.584-16s6.544-16,14.584-16c4.424,0,8-3.576,8-8c0-0.688,0.112-1.352,0.192-2.016l0.136-1.048    c0.072-0.624,0.072-1.248,0-1.872l-0.136-1.048c-0.08-0.664-0.192-1.328-0.192-2.016c0-13.232,9.92-24,22.12-24    c10.72,0,19.848,8.352,21.712,19.856c0.44,2.712,2.232,5.008,4.752,6.088c2.536,1.08,5.424,0.784,7.68-0.768    c4.864-3.352,10.568,1.056,10.568,6.824c0,4.424,3.576,8,8,8c8.04,0,14.584,7.176,14.584,16s-6.544,16-14.584,16H35.66z     M133.076,464h-80v-80h80V464z M165.076,464h-16v-88c0-4.424-3.576-8-8-8h-96c-4.424,0-8,3.576-8,8v88h-16V216h144V464z     M261.076,464h-48v-80h48V464z M293.076,208v256h-16v-88c0-4.424-3.576-8-8-8h-64c-4.424,0-8,3.576-8,8v88h-16V208V72h112V208z     M293.076,56h-112V16h112V56z M397.076,120c4.416,0,8,3.584,8,8s-3.584,8-8,8c-4.416,0-8-3.584-8-8S392.66,120,397.076,120z     M421.076,464h-80v-80h80V464z M453.076,464h-16v-88c0-4.424-3.576-8-8-8h-96c-4.424,0-8,3.576-8,8v88h-16V216h144V464z" fill="#f0542d"/>
	</g>
</g>
<g>
	<g>
		<rect x="197.076" y="88" width="16" height="48" fill="#f0542d"/>
	</g>
</g>
<g>
	<g>
		<rect x="229.076" y="88" width="16" height="48" fill="#f0542d"/>
	</g>
</g>
<g>
	<g>
		<rect x="261.076" y="88" width="16" height="48" fill="#f0542d"/>
	</g>
</g>
<g>
	<g>
		<rect x="197.076" y="160" width="16" height="48" fill="#f0542d"/>
	</g>
</g>
<g>
	<g>
		<rect x="229.076" y="160" width="16" height="48" fill="#f0542d"/>
	</g>
</g>
<g>
	<g>
		<rect x="261.076" y="160" width="16" height="48" fill="#f0542d"/>
	</g>
</g>
<g>
	<g>
		<rect x="197.076" y="232" width="16" height="48" fill="#f0542d"/>
	</g>
</g>
<g>
	<g>
		<rect x="229.076" y="232" width="16" height="48" fill="#f0542d"/>
	</g>
</g>
<g>
	<g>
		<rect x="261.076" y="232" width="16" height="48" fill="#f0542d"/>
	</g>
</g>
<g>
	<g>
		<rect x="197.076" y="304" width="16" height="48" fill="#f0542d"/>
	</g>
</g>
<g>
	<g>
		<rect x="229.076" y="304" width="16" height="48" fill="#f0542d"/>
	</g>
</g>
<g>
	<g>
		<rect x="261.076" y="304" width="16" height="48" fill="#f0542d"/>
	</g>
</g>
<g>
	<g>
		<rect x="37.076" y="232.96" width="16" height="47" fill="#f0542d"/>
	</g>
</g>
<g>
	<g>
		<rect x="101.076" y="232" width="16" height="48" fill="#f0542d"/>
	</g>
</g>
<g>
	<g>
		<rect x="133.076" y="232" width="16" height="48" fill="#f0542d"/>
	</g>
</g>
<g>
	<g>
		<path d="M397.076,72c-11.928,0-22.864,7.024-30.8,19.776l13.592,8.456C384.772,92.344,390.884,88,397.076,88    c6.192,0,12.304,4.344,17.2,12.224l13.592-8.456C419.94,79.024,409.004,72,397.076,72z" fill="#f0542d"/>
	</g>
</g>
<g>
	<g>
		<path d="M397.076,40c-20.544,0-39.784,9.552-54.16,26.888l12.312,10.216C366.524,63.496,381.38,56,397.076,56    c15.696,0,30.552,7.496,41.84,21.112l12.312-10.216C436.86,49.552,417.62,40,397.076,40z" fill="#f0542d"/>
	</g>
</g>
<g>
	<g>
		<path d="M397.076,8c-29.424,0-57.072,12.264-77.848,34.544l11.704,10.904C348.644,34.464,372.14,24,397.076,24    c24.936,0,48.432,10.464,66.152,29.456l11.696-10.912C454.148,20.264,426.5,8,397.076,8z" fill="#f0542d"/>
	</g>
</g>
<g>
	<g>
		<rect x="69.076" y="232" width="16" height="48" fill="#f0542d"/>
	</g>
</g>
<g>
	<g>
		<rect x="325.076" y="232.96" width="16" height="47" fill="#f0542d"/>
	</g>
</g>
<g>
	<g>
		<rect x="389.076" y="232" width="16" height="48" fill="#f0542d"/>
	</g>
</g>
<g>
	<g>
		<rect x="421.076" y="232" width="16" height="48" fill="#f0542d"/>
	</g>
</g>
<g>
	<g>
		<rect x="357.076" y="232" width="16" height="48" fill="#f0542d"/>
	</g>
</g>
<g>
	<g>
		<rect x="325.076" y="304.96" width="16" height="47" fill="#f0542d"/>
	</g>
</g>
<g>
	<g>
		<rect x="389.076" y="304" width="16" height="48" fill="#f0542d"/>
	</g>
</g>
<g>
	<g>
		<rect x="421.076" y="304" width="16" height="48" fill="#f0542d"/>
	</g>
</g>
<g>
	<g>
		<rect x="357.076" y="304" width="16" height="48" fill="#f0542d"/>
	</g>
</g>
<g>
	<g>
		<rect x="37.076" y="304.96" width="16" height="47" fill="#f0542d"/>
	</g>
</g>
<g>
	<g>
		<rect x="101.076" y="304" width="16" height="48" fill="#f0542d"/>
	</g>
</g>
<g>
	<g>
		<rect x="133.076" y="304" width="16" height="48" fill="#f0542d"/>
	</g>
</g>
<g>
	<g>
		<rect x="69.076" y="304" width="16" height="48" fill="#f0542d"/>
	</g>
</g>
<g>
</g>
<g>
</g>
<g>
</g>
<g>
</g>
<g>
</g>
<g>
</g>
<g>
</g>
<g>
</g>
<g>
</g>
<g>
</g>
<g>
</g>
<g>
</g>
<g>
</g>
<g>
</g>
<g>
</g>
</svg>
