<?xml version="1.0" encoding="iso-8859-1"?>
<!-- Generator: Adobe Illustrator 19.0.0, SVG Export Plug-In . SVG Version: 6.00 Build 0)  -->
<svg xmlns="http://www.w3.org/2000/svg" xmlns:xlink="http://www.w3.org/1999/xlink" version="1.1" id="Capa_1" x="0px" y="0px" viewBox="0 0 496 496" style="enable-background:new 0 0 496 496;" xml:space="preserve" width="512px" height="512px">
<g>
	<g>
		<g>
			<path d="M416,0h-8h-72h-16h-64h-16h-64h-16H80v64c0,23.736,17.336,43.448,40,47.28V296H96c-13.232,0-24,10.768-24,24     s10.768,24,24,24h24v32H48v-88c0-13.232-10.768-24-24-24S0,274.768,0,288v88v8v32v8v72h48v-72h32v72h48v-73.472     c9.288-3.312,16-12.112,16-22.528c0-7.064-3.128-13.36-8-17.76V344h40v104h-32v48h112v-48h-32V344h80c13.232,0,24-10.768,24-24     s-10.768-24-24-24h-72v-32c13.232,0,24-10.768,24-24c0-7.208-3.192-13.856-8.496-18.336c0.328-1.856,0.496-3.752,0.496-5.664     c0-17.648-14.352-32-32-32c-5.64,0-11.152,1.52-16,4.368c-4.848-2.848-10.36-4.368-16-4.368c-17.648,0-32,14.352-32,32     c0,1.912,0.168,3.808,0.496,5.664C147.192,226.144,144,232.792,144,240c0,13.232,10.768,24,24,24v32h-32V111.28     c13.328-2.248,24.8-9.968,32-20.8c8.608,12.96,23.312,21.52,40,21.52s31.392-8.568,40-21.52c8.608,12.96,23.312,21.52,40,21.52     s31.392-8.568,40-21.52c8.608,12.96,23.312,21.52,40,21.52s31.392-8.568,40-21.52c8.608,12.96,23.312,21.52,40,21.52     c12.296,0,23.496-4.688,32-12.328V480h-80v-56v-8v-32v-8v-88c0-13.232-10.768-24-24-24s-24,10.768-24,24v88h-72     c-13.232,0-24,10.768-24,24c0,10.416,6.712,19.216,16,22.528V496h48v-72h32v72h40h8h96V64v-8V0H416z M16,288c0-4.416,3.584-8,8-8     s8,3.584,8,8v88H16V288z M32,480H16v-56h16V480z M112,480H96v-56h16V480z M120,408H16v-16h104c4.416,0,8,3.584,8,8     C128,404.416,124.416,408,120,408z M240,464v16h-80v-16H240z M192,448V344h16v104H192z M160,240c0-3.232,1.928-6.136,4.92-7.384     l7.4-3.08l-3.088-7.392c-0.816-1.96-1.232-4.016-1.232-6.144c0-8.824,7.184-16,16-16c3.88,0,7.656,1.48,10.648,4.168l5.352,4.824     l5.352-4.816C208.344,201.48,212.12,200,216,200c8.816,0,16,7.176,16,16c0,2.128-0.416,4.184-1.232,6.152l-3.088,7.392l7.4,3.08     c2.992,1.24,4.92,4.144,4.92,7.376c0,4.416-3.584,8-8,8h-64C163.584,248,160,244.416,160,240z M216,264v32h-32v-32H216z M304,312     c4.416,0,8,3.584,8,8c0,4.416-3.584,8-8,8H96c-4.416,0-8-3.584-8-8c0-4.416,3.584-8,8-8H304z M160,64c0,17.648-14.352,32-32,32     S96,81.648,96,64V16h64V64z M240,64c0,17.648-14.352,32-32,32s-32-14.352-32-32V16h64V64z M320,64c0,17.648-14.352,32-32,32     s-32-14.352-32-32V16h64V64z M304,480h-16v-56h16V480z M384,480h-16v-56h16V480z M384,408H280c-4.416,0-8-3.584-8-8     c0-4.416,3.584-8,8-8h104V408z M384,376h-16v-88c0-4.416,3.584-8,8-8c4.416,0,8,3.584,8,8V376z M480,56v8     c0,17.648-14.352,32-32,32s-32-14.352-32-32V48h-16v16c0,17.648-14.352,32-32,32s-32-14.352-32-32V16h64v16h16V16h64V56z" fill="#f0542d"/>
			<path d="M440,128H328v112h112V128z M376,224h-32v-32h32V224z M376,176h-32v-32h32V176z M424,224h-32v-32h32V224z M424,176h-32     v-32h32V176z" fill="#f0542d"/>
		</g>
	</g>
</g>
<g>
</g>
<g>
</g>
<g>
</g>
<g>
</g>
<g>
</g>
<g>
</g>
<g>
</g>
<g>
</g>
<g>
</g>
<g>
</g>
<g>
</g>
<g>
</g>
<g>
</g>
<g>
</g>
<g>
</g>
</svg>
