<?xml version="1.0" encoding="iso-8859-1"?>
<!-- Generator: Adobe Illustrator 16.0.0, SVG Export Plug-In . SVG Version: 6.00 Build 0)  -->
<!DOCTYPE svg PUBLIC "-//W3C//DTD SVG 1.1//EN" "http://www.w3.org/Graphics/SVG/1.1/DTD/svg11.dtd">
<svg xmlns="http://www.w3.org/2000/svg" xmlns:xlink="http://www.w3.org/1999/xlink" version="1.1" id="Capa_1" x="0px" y="0px" width="512px" height="512px" viewBox="0 0 320.349 320.349" style="enable-background:new 0 0 320.349 320.349;" xml:space="preserve">
<g>
	<path d="M162.364,251.139H5.256c-2.905,0-5.256,2.354-5.256,5.257v32.12c0,8.915,6.276,16.393,14.638,18.247   c0.963,1.163,2.421,1.906,4.05,1.906h130.244c10.302,0,18.688-8.385,18.688-18.688c0-0.271-0.014-0.537-0.038-0.825   c0.024-0.212,0.038-0.424,0.038-0.64v-32.12C167.621,253.493,165.267,251.139,162.364,251.139z M157.108,287.273   c-0.144,0.596-0.185,1.212-0.115,1.827l0.115,0.88c0,4.507-3.665,8.176-8.175,8.176H22.33c-0.946-0.907-2.228-1.465-3.641-1.465   c-4.51,0-8.176-3.669-8.176-8.176v-26.864h146.595V287.273z" fill="#f0542d"/>
	<path d="M201.106,24.212l-37.088-12.265c-0.531-0.18-1.09-0.267-1.65-0.267H5.256C2.351,11.68,0,14.035,0,16.937v85.855   c0,2.902,2.351,5.256,5.256,5.256h41.373L24.068,211.996l-20.812,8.586c-1.97,0.808-3.253,2.731-3.253,4.859v11.39   c0,2.901,2.353,5.256,5.256,5.256h157.104c2.905,0,5.257-2.354,5.257-5.256v-14.018c0-2.525-1.793-4.691-4.271-5.167l-45.663-8.706   l5.123-39.854l12.191-5.424c1.561-0.691,2.685-2.105,3.019-3.775l8.761-44.057c0.553-2.782-1.2-5.498-3.956-6.143l-7.332-1.72   v-2.688l27.011-0.739c1.122-0.031,2.204-0.417,3.087-1.107l37.086-28.911c1.276-0.996,2.025-2.527,2.025-4.146V29.202   C204.707,26.938,203.256,24.922,201.106,24.212z M194.194,67.812l-33.7,26.269l-30.397,0.83c-2.845,0.074-5.112,2.408-5.112,5.253   v11.971c0,2.438,1.678,4.562,4.059,5.116l6.44,1.515l-7.24,36.401l-12.405,5.521c-1.678,0.746-2.842,2.307-3.077,4.131   l-6.132,47.688c-0.354,2.759,1.499,5.318,4.23,5.839l46.249,8.822v4.411H10.513v-2.615l20.109-8.295   c1.598-0.657,2.769-2.057,3.133-3.74l24.53-113.015c0.335-1.552-0.046-3.174-1.045-4.415c-0.998-1.241-2.502-1.959-4.093-1.959   H10.513V22.196h151.005l32.677,10.807V67.812z" fill="#f0542d"/>
	<path d="M237.998,23.945h-20.15c-2.905,0-5.256,2.354-5.256,5.256v38.547c0,2.902,2.351,5.256,5.256,5.256h20.15   c2.905,0,5.256-2.354,5.256-5.256V29.202C243.254,26.3,240.903,23.945,237.998,23.945z M232.741,62.492h-9.637V34.458h9.637V62.492   z" fill="#f0542d"/>
	<path d="M315.092,43.219c-0.007,0-0.017,0-0.023,0l-56.045,0.267v-3.771c0-2.902-2.351-5.256-5.257-5.256   c-2.905,0-5.256,2.354-5.256,5.256v18.103c0,2.902,2.351,5.257,5.256,5.257c2.906,0,5.257-2.354,5.257-5.257v-3.819l56.096-0.267   c2.899-0.014,5.243-2.38,5.229-5.28C320.335,45.556,317.987,43.219,315.092,43.219z" fill="#f0542d"/>
</g>
<g>
</g>
<g>
</g>
<g>
</g>
<g>
</g>
<g>
</g>
<g>
</g>
<g>
</g>
<g>
</g>
<g>
</g>
<g>
</g>
<g>
</g>
<g>
</g>
<g>
</g>
<g>
</g>
<g>
</g>
</svg>
