<?xml version="1.0" encoding="iso-8859-1"?>
<!-- Generator: Adobe Illustrator 19.0.0, SVG Export Plug-In . SVG Version: 6.00 Build 0)  -->
<svg version="1.1" id="Capa_1" xmlns="http://www.w3.org/2000/svg" xmlns:xlink="http://www.w3.org/1999/xlink" x="0px" y="0px"
	 viewBox="0 0 508 508" style="enable-background:new 0 0 508 508;" xml:space="preserve">
<g>
	<g>
		<path d="M396.55,306.2l35.4-27.9l-0.2-45.1l19.7-40.6l-19.6-40.6l0.2-45.1l-35.4-28l-19.4-40.7l-44-9.9L298.05,0l-44,10.3
			L210.15,0l-35.2,28.3l-44,9.9l-19.4,40.7l-35.5,28l0.2,45.1l-19.7,40.6l19.7,40.6l-0.2,45.1l35.4,28l14.2,29.9l-57.5,123.3
			l68.1-10.4l35.8,58.9l59.6-127.9l22.3-5.2l17.6,4.1l60.2,129l35.8-58.9l68.1,10.4l-55.5-119L396.55,306.2z M170.15,473.3
			l-25.6-42.1l-48.6,7.4l42-90.2l37,8.3l35.2,28.3L170.15,473.3z M254.05,358l-39.9,9.4l-31.9-25.7l-40-9l-17.6-37l-32.2-25.4
			l0.2-41l-17.9-36.8l17.9-36.9l-0.2-41l32.2-25.4l17.6-37l40-9l31.9-25.7l39.9,9.3l39.9-9.3l31.9,25.7l40,9l17.6,37l32.2,25.4
			l-0.2,41l17.9,36.8l-17.9,36.8l0.2,41l-32.2,25.4l-17.6,37l-40,9l-31.9,25.7L254.05,358z M407.85,438.7l-48.6-7.4l-25.6,42
			l-41.8-89.6l6.1,1.4l35.2-28.3l33.1-7.4L407.85,438.7z"/>
	</g>
</g>
<g>
	<g>
		<path d="M254.05,50.9c-78.1,0-141.7,63.6-141.7,141.7s63.6,141.7,141.7,141.7c78.1-0.1,141.7-63.6,141.7-141.7
			S332.15,50.9,254.05,50.9z M254.05,317.9c-69.1,0-125.3-56.2-125.3-125.3s56.2-125.3,125.3-125.3s125.3,56.2,125.3,125.3
			S323.15,317.9,254.05,317.9z"/>
	</g>
</g>
<g>
	<g>
		<path d="M360.55,158h-81.4l-25.1-77.4l-25.1,77.4h-81.4l65.8,47.8l-25.1,77.4l65.8-47.8l65.8,47.8l-25.1-77.4L360.55,158z
			 M254.05,215.1l-34.7,25.2l13.2-40.8l-34.7-25.2h42.8l13.2-40.8l13.2,40.8h42.8l-34.7,25.2l13.6,40.8L254.05,215.1z"/>
	</g>
</g>
<g>
</g>
<g>
</g>
<g>
</g>
<g>
</g>
<g>
</g>
<g>
</g>
<g>
</g>
<g>
</g>
<g>
</g>
<g>
</g>
<g>
</g>
<g>
</g>
<g>
</g>
<g>
</g>
<g>
</g>
</svg>
