<?xml version="1.0" encoding="iso-8859-1"?>
<!-- Generator: Adobe Illustrator 16.0.0, SVG Export Plug-In . SVG Version: 6.00 Build 0)  -->
<!DOCTYPE svg PUBLIC "-//W3C//DTD SVG 1.1//EN" "http://www.w3.org/Graphics/SVG/1.1/DTD/svg11.dtd">
<svg xmlns="http://www.w3.org/2000/svg" xmlns:xlink="http://www.w3.org/1999/xlink" version="1.1" id="Capa_1" x="0px" y="0px" width="512px" height="512px" viewBox="0 0 285.682 285.682" style="enable-background:new 0 0 285.682 285.682;" xml:space="preserve">
<g>
	<path d="M147.652,118.192h-19.744c-1.935,0-3.504,1.571-3.504,3.504v40.911h-14.516c-3.992,0.007-7.239,3.254-7.239,7.241v12.48   c0,1.372,0.405,2.646,1.071,3.74c-0.666,1.099-1.071,2.368-1.071,3.744v12.477c0,1.373,0.405,2.643,1.071,3.744   c-0.666,1.096-1.071,2.361-1.071,3.737v12.478c0,1.368,0.405,2.642,1.071,3.736c-0.666,1.096-1.075,2.368-1.075,3.744v12.478   c0,3.99,3.248,7.234,7.243,7.241h0.004h14.512v11.881c0,13.429,10.921,24.353,24.343,24.353h0.008   c13.425,0,24.348-10.924,24.352-24.353v-14.752c0.198,0.256,0.383,0.517,0.619,0.752c1.373,1.366,3.189,2.119,5.13,2.119h18.727   c3.798,0,6.885-2.943,7.189-6.66c0.302,3.724,3.388,6.66,7.187,6.66h13.709c0.004,0,0.021,0,0.024,0   c1.937,0,3.758-0.753,5.119-2.125c1.362-1.366,2.115-3.187,2.115-5.116v-72.352c0-1.931-0.753-3.751-2.118-5.12   c-1.372-1.368-3.187-2.121-5.127-2.121h-13.729c-1.934,0-3.754,0.753-5.119,2.121c-1.071,1.075-1.749,2.42-1.999,3.878v-18.784   c0-0.281-0.014-0.555-0.044-0.828c0.219-2.348-0.709-4.675-2.525-6.205l-27.131-22.915c-1.424-1.191-3.437-1.716-5.161-1.608   c-0.123-0.014-0.236-0.074-0.366-0.074h-1.313c-0.027,0-0.065,0-0.093,0c-0.031,0-0.065,0-0.089,0h-13.442V77.88   c0-1.8-1.362-3.304-3.151-3.487l-95.811-9.661V26.426c0-1.934-1.571-3.504-3.504-3.504c-1.936,0-3.504,1.571-3.504,3.504v41.473   c0,1.802,1.362,3.306,3.153,3.487l95.802,9.663V118.192z M211.955,169.619l13.962,0.236l-0.007,72.352   c0,0.109-0.112,0.232-0.222,0.232l-13.967-0.236L211.955,169.619z M109.893,169.616h18.016l17.729,0.239l-0.239,12.71h-17.486   l-18.25-0.236L109.893,169.616z M109.886,222.488c-0.074,0-0.141,0.017-0.214,0.021l-0.017-0.26l0.234-12.71h18.141l17.597,0.232   l-0.236,12.71L109.886,222.488z M109.658,202.29l0.235-12.717h18.016l17.729,0.236l-0.239,12.714l-35.502,0.007   c-0.073,0-0.147,0.021-0.221,0.021L109.658,202.29z M109.893,245.95l-0.238-3.74l0.238-12.713h18.141l17.601,0.232l-0.24,12.717   h-17.485c-0.003,0-0.003,0-0.007,0h-18.009V245.95z M166.098,261.329c-0.003,9.562-7.788,17.344-17.351,17.344   c-9.56,0-17.334-7.775-17.334-17.34v-11.878h13.981c3.997,0,7.248-3.251,7.248-7.245v-12.48c0-0.609-0.103-1.198-0.246-1.766   c-0.041-0.164-0.096-0.322-0.15-0.486c-0.137-0.417-0.312-0.814-0.521-1.194c-0.048-0.093-0.071-0.202-0.123-0.291   c0.045-0.075,0.062-0.161,0.103-0.239c0.229-0.411,0.414-0.835,0.558-1.287c0.052-0.144,0.097-0.287,0.134-0.438   c0.147-0.582,0.246-1.171,0.246-1.779l-0.007-12.475c0-0.612-0.099-1.201-0.243-1.775c-0.041-0.158-0.092-0.315-0.146-0.473   c-0.141-0.424-0.312-0.824-0.527-1.211c-0.048-0.09-0.068-0.192-0.116-0.274c0.052-0.089,0.068-0.185,0.116-0.273   c0.219-0.404,0.4-0.818,0.544-1.256c0.052-0.154,0.103-0.312,0.141-0.469c0.141-0.568,0.239-1.15,0.232-1.745l0.007-12.481   c0-0.615-0.103-1.201-0.246-1.772c-0.041-0.164-0.096-0.321-0.147-0.482c-0.14-0.424-0.314-0.824-0.523-1.211   c-0.051-0.086-0.071-0.192-0.123-0.281c0.052-0.082,0.072-0.185,0.123-0.273c0.209-0.387,0.384-0.787,0.521-1.212   c0.055-0.157,0.109-0.314,0.15-0.482c0.147-0.571,0.246-1.156,0.246-1.769l0.004-12.478c0-0.486-0.052-0.962-0.144-1.424   c-0.031-0.15-0.093-0.294-0.134-0.444c-0.082-0.302-0.157-0.596-0.273-0.877c-0.068-0.171-0.168-0.328-0.247-0.492   c-0.13-0.246-0.246-0.489-0.396-0.719c-0.103-0.157-0.226-0.295-0.343-0.445c-0.13-0.171-0.246-0.355-0.396-0.513   c0.195-0.041,0.373-0.141,0.562-0.199c0.064-0.021,0.123-0.048,0.185-0.068c0.366-0.126,0.732-0.253,1.074-0.438   c0.448-0.226,0.88-0.5,1.273-0.835l12.289-10.38v108.308H166.098z M197.801,148.364c-0.096,0.486-0.096,0.976,0.017,1.458V242.2   c0,0.137-0.105,0.239-0.235,0.239l-18.973-0.239v-91.625c0-1.034-0.459-2.013-1.246-2.68l-5.503-4.646   c-0.006-0.009-0.287-0.243-0.301-0.25c-0.325-0.267-0.685-0.466-1.064-0.599c-0.185-0.067-0.38-0.067-0.574-0.099   c-0.195-0.034-0.387-0.101-0.589-0.101c-0.004,0-0.004,0-0.007,0c-0.298,0-0.592,0.077-0.887,0.154   c-0.096,0.025-0.198,0.019-0.294,0.053c-0.384,0.141-0.743,0.344-1.067,0.616l-18.117,14.991l-8.023-9.862l27.345-22.941   c0.637,0.2,1.074,0.271,1.718,0.096c0.096-0.014,0.527-0.043,0.623-0.067L197.801,148.364z M136.412,142.796   c-1.478,1.25-2.385,3.001-2.547,4.931c-0.161,1.927,0.438,3.806,1.685,5.28l8.051,9.531c0.018,0.021,0.038,0.048,0.055,0.068   h-12.243v-37.406h25.835L136.412,142.796z" fill="#f0542d"/>
	<path d="M65.326,3.504v45.843c0,1.936,1.569,3.504,3.504,3.504h164.65c1.93,0,3.504-1.569,3.504-3.504V3.504   C236.984,1.57,235.41,0,233.48,0H68.83C66.895,0,65.326,1.57,65.326,3.504z M72.334,7.008h157.642v38.834H72.334V7.008z" fill="#f0542d"/>
</g>
<g>
</g>
<g>
</g>
<g>
</g>
<g>
</g>
<g>
</g>
<g>
</g>
<g>
</g>
<g>
</g>
<g>
</g>
<g>
</g>
<g>
</g>
<g>
</g>
<g>
</g>
<g>
</g>
<g>
</g>
</svg>
