<?xml version="1.0" encoding="iso-8859-1"?>
<!-- Generator: Adobe Illustrator 19.0.0, SVG Export Plug-In . SVG Version: 6.00 Build 0)  -->
<svg version="1.1" id="Capa_1" xmlns="http://www.w3.org/2000/svg" xmlns:xlink="http://www.w3.org/1999/xlink" x="0px" y="0px"
	 viewBox="0 0 480 480" style="enable-background:new 0 0 480 480;" xml:space="preserve">
<g>
	<g>
		<path d="M320,64h-12.176c-0.84-2.376-1.816-4.712-2.888-6.984l8.608-8.616c1.504-1.504,2.344-3.536,2.344-5.656
			s-0.84-4.16-2.344-5.656L290.92,14.456c-3.128-3.128-8.184-3.128-11.312,0l-8.616,8.608c-2.28-1.072-4.608-2.04-6.992-2.888V8
			c0-4.416-3.576-8-8-8h-32c-4.424,0-8,3.584-8,8v12.176c-2.384,0.84-4.712,1.808-6.984,2.888l-8.616-8.6
			c-3.128-3.128-8.184-3.128-11.312,0l-22.624,22.632c-1.504,1.504-2.344,3.536-2.344,5.656s0.84,4.16,2.344,5.656l8.608,8.616
			c-1.08,2.264-2.048,4.6-2.896,6.976H160c-4.424,0-8,3.584-8,8v32c0,4.416,3.576,8,8,8h12.176c0.84,2.376,1.816,4.712,2.888,6.984
			l-8.608,8.616c-1.504,1.504-2.344,3.536-2.344,5.656s0.84,4.16,2.344,5.656l22.624,22.632c3.128,3.128,8.184,3.128,11.312,0
			l8.616-8.608c2.272,1.08,4.6,2.048,6.984,2.888V168c0,4.416,3.576,8,8,8h32c4.424,0,8-3.584,8-8v-12.176
			c2.384-0.84,4.712-1.808,6.984-2.888l8.616,8.608c3.128,3.128,8.184,3.128,11.312,0l22.624-22.632
			c1.504-1.504,2.344-3.536,2.344-5.656s-0.84-4.16-2.344-5.656l-8.608-8.616c1.08-2.272,2.048-4.608,2.888-6.984H320
			c4.424,0,8-3.584,8-8V72C328,67.584,324.424,64,320,64z M312,96h-10.096c-3.648,0-6.832,2.464-7.744,6
			c-1.312,5.072-3.32,9.92-5.968,14.4c-1.848,3.144-1.344,7.144,1.232,9.72l7.144,7.136l-11.312,11.32l-7.144-7.136
			c-2.568-2.576-6.584-3.088-9.728-1.232c-4.472,2.64-9.312,4.64-14.392,5.952c-3.52,0.904-5.992,4.096-5.992,7.744V160h-16v-10.096
			c0-3.648-2.472-6.832-6-7.744c-5.08-1.312-9.92-3.312-14.392-5.952c-3.136-1.848-7.144-1.36-9.728,1.232l-7.144,7.136
			l-11.312-11.32l7.144-7.136c2.576-2.576,3.088-6.576,1.232-9.72c-2.648-4.48-4.656-9.328-5.968-14.4c-0.912-3.536-4.088-6-7.736-6
			H168V80h10.096c3.648,0,6.832-2.464,7.744-6c1.312-5.072,3.32-9.92,5.968-14.4c1.848-3.144,1.344-7.144-1.232-9.72l-7.144-7.136
			l11.312-11.32l7.144,7.136c2.584,2.584,6.592,3.096,9.728,1.232c4.472-2.64,9.312-4.64,14.392-5.952
			c3.52-0.904,5.992-4.096,5.992-7.744V16h16v10.096c0,3.648,2.472,6.832,6,7.744c5.08,1.312,9.92,3.312,14.392,5.952
			c3.136,1.848,7.152,1.36,9.728-1.232l7.144-7.136l11.312,11.32l-7.144,7.136c-2.576,2.576-3.088,6.576-1.232,9.72
			c2.648,4.48,4.656,9.328,5.968,14.4c0.912,3.528,4.096,6,7.744,6H312V96z"/>
	</g>
</g>
<g>
	<g>
		<path d="M240,56c-17.648,0-32,14.352-32,32s14.352,32,32,32s32-14.352,32-32S257.648,56,240,56z M240,104c-8.824,0-16-7.176-16-16
			s7.176-16,16-16c8.824,0,16,7.176,16,16S248.824,104,240,104z"/>
	</g>
</g>
<g>
	<g>
		<path d="M200,176h-32c-4.424,0-8,3.584-8,8v48c0,4.408-3.584,8-8,8h-36.32c7.632-8.504,12.32-19.696,12.32-32
			c0-26.472-21.528-48-48-48s-48,21.528-48,48c0,12.304,4.688,23.496,12.32,32H40c-22.056,0-40,17.944-40,40v72c0,4.416,3.576,8,8,8
			h22.24L8.16,470.432c-0.472,2.352,0.144,4.792,1.656,6.64C11.336,478.928,13.6,480,16,480h40c3.776,0,7.032-2.64,7.824-6.328
			L80,398.176l16.176,75.496C96.968,477.36,100.224,480,104,480h40c2.4,0,4.664-1.072,6.184-2.928
			c1.512-1.848,2.128-4.288,1.656-6.64L128,351.208V288h24c30.872,0,56-25.12,56-56v-48C208,179.584,204.424,176,200,176z M80,176
			c17.648,0,32,14.352,32,32s-14.352,32-32,32s-32-14.352-32-32S62.352,176,80,176z M192,232c0,22.056-17.944,40-40,40h-32
			c-4.424,0-8,3.584-8,8v72c0,0.528,0.056,1.048,0.16,1.568L134.24,464h-23.776L87.816,358.328C87.032,354.64,83.776,352,80,352
			s-7.032,2.64-7.824,6.328L49.528,464H25.76l22.08-110.432c0.104-0.52,0.16-1.04,0.16-1.568v-72H32v64H16v-64
			c0-13.232,10.768-24,24-24h112c13.232,0,24-10.768,24-24v-40h16V232z"/>
	</g>
</g>
<g>
	<g>
		<path d="M440,240h-4.32c7.632-8.504,12.32-19.696,12.32-32c0-26.472-21.528-48-48-48s-48,21.528-48,48
			c0,12.304,4.688,23.496,12.32,32H328c-4.416,0-8-3.592-8-8v-48c0-4.416-3.576-8-8-8h-32c-4.424,0-8,3.584-8,8v48
			c0,30.88,25.128,56,56,56h24v63.208l-23.84,119.224c-0.472,2.352,0.144,4.792,1.656,6.64C331.336,478.928,333.6,480,336,480h40
			c3.776,0,7.032-2.64,7.824-6.328L400,398.176l16.176,75.496C416.968,477.36,420.224,480,424,480h40c2.4,0,4.664-1.072,6.184-2.928
			c1.512-1.848,2.128-4.288,1.656-6.64L449.76,360H472c4.424,0,8-3.584,8-8v-72C480,257.944,462.056,240,440,240z M400,176
			c17.648,0,32,14.352,32,32s-14.352,32-32,32s-32-14.352-32-32S382.352,176,400,176z M464,344h-16v-64h-16v72
			c0,0.528,0.056,1.048,0.16,1.568L454.24,464h-23.776l-22.648-105.672C407.032,354.64,403.776,352,400,352s-7.032,2.64-7.824,6.328
			L369.528,464H345.76l22.088-110.432c0.096-0.52,0.152-1.04,0.152-1.568v-72c0-4.416-3.576-8-8-8h-32c-22.056,0-40-17.944-40-40
			v-40h16v40c0,13.232,10.768,24,24,24h112c13.232,0,24,10.768,24,24V344z"/>
	</g>
</g>
<g>
</g>
<g>
</g>
<g>
</g>
<g>
</g>
<g>
</g>
<g>
</g>
<g>
</g>
<g>
</g>
<g>
</g>
<g>
</g>
<g>
</g>
<g>
</g>
<g>
</g>
<g>
</g>
<g>
</g>
</svg>
