<?xml version="1.0" encoding="iso-8859-1"?>
<!-- Generator: Adobe Illustrator 16.0.0, SVG Export Plug-In . SVG Version: 6.00 Build 0)  -->
<!DOCTYPE svg PUBLIC "-//W3C//DTD SVG 1.1//EN" "http://www.w3.org/Graphics/SVG/1.1/DTD/svg11.dtd">
<svg xmlns="http://www.w3.org/2000/svg" xmlns:xlink="http://www.w3.org/1999/xlink" version="1.1" id="Capa_1" x="0px" y="0px" width="512px" height="512px" viewBox="0 0 257.495 257.495" style="enable-background:new 0 0 257.495 257.495;" xml:space="preserve">
<g>
	<path d="M197.143,214.01l0.004-72.352c0-1.934-0.753-3.751-2.122-5.119c-1.368-1.369-3.189-2.122-5.126-2.122h-13.729   c-1.938,0-3.751,0.753-5.123,2.122c-1.064,1.071-1.742,2.412-1.995,3.863v-18.771c0-0.281-0.014-0.558-0.048-0.827   c0.219-2.344-0.712-4.671-2.522-6.203L140.212,92.42c15.581-9.465,25.389-26.576,25.389-45.017   c0.004-20.006-11.111-38.025-29.013-47.027c-1.085-0.542-2.375-0.494-3.412,0.147c-1.033,0.638-1.665,1.766-1.665,2.982   l-0.003,40.393H94.439V3.506c0-1.217-0.631-2.344-1.665-2.982c-1.037-0.642-2.327-0.697-3.412-0.147   C71.468,9.378,60.349,27.397,60.349,47.403c0,19.561,11.024,37.63,28.275,46.653l-0.003,40.361h-14.51   c-3.996,0.007-7.245,3.254-7.245,7.241v12.48c0,1.372,0.407,2.646,1.073,3.744c-0.666,1.095-1.073,2.368-1.073,3.74v12.478   c0,1.372,0.404,2.642,1.069,3.733c-0.683,1.122-1.069,2.405-1.066,3.747l-0.003,12.474c0,1.376,0.407,2.646,1.073,3.744   c-0.666,1.095-1.073,2.368-1.076,3.744v12.477c0,3.987,3.249,7.238,7.245,7.245h0.003h14.51v11.878   c0,13.429,10.924,24.353,24.349,24.353h0.007c13.425,0,24.351-10.924,24.351-24.353V218.38c0.191,0.257,0.383,0.517,0.616,0.753   c1.372,1.368,3.189,2.121,5.126,2.121h18.736c3.795,0,6.879-2.939,7.187-6.655c0.305,3.713,3.392,6.655,7.184,6.655h13.709   c0.007,0,0.021,0,0.027,0c1.93,0,3.751-0.756,5.119-2.128C196.394,217.764,197.143,215.943,197.143,214.01z M93.619,88.706   C77.664,81.22,67.357,65.005,67.357,47.4c0-15.362,7.563-29.373,20.073-37.796v37.799c0,1.936,1.571,3.504,3.504,3.504h44.079   c1.93,0,3.504-1.569,3.504-3.504V9.604c12.516,8.423,20.078,22.434,20.075,37.796c0,17.602-10.308,33.82-26.262,41.312   c-0.68,0.32-1.228,0.842-1.576,1.475c-0.053,0.012-0.1,0.042-0.152,0.056c-0.266,0.07-0.519,0.187-0.776,0.284   c-0.243,0.09-0.495,0.161-0.726,0.284c-0.481,0.245-0.936,0.539-1.35,0.89l-27.122,22.904c-3.053,2.579-3.434,7.159-0.859,10.212   l8.045,9.531c0.019,0.023,0.039,0.048,0.056,0.068H95.626l0.003-42.532C95.633,90.521,94.85,89.284,93.619,88.706z M74.108,194.291   c-0.074,0-0.144,0.018-0.214,0.021l-0.019-0.26l0.24-12.71h18.137l17.595,0.236l-0.234,12.71L74.108,194.291z M73.875,174.097   l0.24-12.717h18.011l17.729,0.236l-0.238,12.713l-35.498,0.004c-0.074,0-0.147,0.018-0.221,0.021L73.875,174.097z M74.115,141.419   h18.011l17.729,0.236l-0.238,12.713H92.129l-18.25-0.236L74.115,141.419z M74.115,217.757l-0.24-3.74l0.24-12.714h18.141   l17.599,0.236l-0.238,12.714H92.129c-0.003,0-0.003,0-0.007,0H74.115V217.757z M112.97,250.483c-9.563,0-17.34-7.782-17.34-17.344   l0.003-11.879h13.979c3.999,0,7.247-3.251,7.247-7.244v-12.478c0-0.616-0.101-1.204-0.245-1.772   c-0.042-0.164-0.099-0.322-0.15-0.482c-0.14-0.418-0.313-0.812-0.522-1.194c-0.049-0.093-0.07-0.198-0.126-0.291   c0.046-0.075,0.063-0.161,0.104-0.239c0.228-0.411,0.414-0.835,0.558-1.287c0.05-0.147,0.094-0.291,0.133-0.441   c0.147-0.578,0.245-1.167,0.245-1.776l-0.003-12.474c0-0.612-0.101-1.201-0.245-1.772c-0.042-0.161-0.096-0.315-0.147-0.479   c-0.14-0.421-0.313-0.821-0.527-1.208c-0.048-0.085-0.068-0.191-0.118-0.277c0.053-0.082,0.07-0.181,0.115-0.27   c0.221-0.4,0.404-0.818,0.544-1.257c0.053-0.153,0.101-0.308,0.144-0.465c0.14-0.568,0.237-1.15,0.234-1.749l0.003-12.48   c0-0.616-0.101-1.201-0.245-1.772c-0.042-0.164-0.099-0.322-0.15-0.482c-0.14-0.425-0.316-0.825-0.527-1.212   c-0.048-0.085-0.068-0.191-0.122-0.28c0.053-0.082,0.074-0.188,0.122-0.273c0.21-0.387,0.387-0.787,0.523-1.212   c0.051-0.161,0.108-0.314,0.15-0.482c0.144-0.571,0.245-1.157,0.245-1.77l0.003-12.478c0-0.485-0.053-0.961-0.144-1.42   c-0.031-0.153-0.091-0.298-0.133-0.451c-0.081-0.298-0.154-0.596-0.272-0.876c-0.074-0.175-0.169-0.332-0.253-0.5   c-0.123-0.239-0.238-0.486-0.385-0.712c-0.109-0.164-0.237-0.312-0.361-0.465c-0.126-0.165-0.238-0.339-0.378-0.493   c0.195-0.048,0.375-0.141,0.566-0.202c0.057-0.017,0.113-0.041,0.166-0.059c0.375-0.126,0.743-0.256,1.094-0.441   c0.448-0.229,0.876-0.499,1.271-0.834l12.289-10.376V233.14C130.315,242.697,122.537,250.483,112.97,250.483z M162.042,214.006   c0,0.138-0.103,0.24-0.236,0.24l-18.973-0.24v-91.628c0-1.03-0.455-2.011-1.242-2.676l-5.51-4.647c0-0.003-0.273-0.231-0.28-0.234   c-0.328-0.274-0.688-0.474-1.067-0.611c-0.171-0.062-0.359-0.058-0.534-0.091c-0.212-0.037-0.424-0.107-0.642-0.107h-0.004   c-0.298,0-0.592,0.077-0.883,0.154c-0.099,0.027-0.203,0.017-0.301,0.051c-0.384,0.141-0.748,0.344-1.073,0.621l-18.12,14.991   l-8.021-9.865l27.347-22.939c0.638,0.2,1.08,0.267,1.725,0.094c0.089-0.014,0.521-0.038,0.612-0.062l27.183,23.124   c-0.096,0.488-0.089,0.972,0.021,1.455V214.006z M190.135,214.013c0,0.109-0.117,0.233-0.223,0.233l-13.97-0.236l0.233-72.588   l13.962,0.233L190.135,214.013z" fill="#f0542d"/>
</g>
<g>
</g>
<g>
</g>
<g>
</g>
<g>
</g>
<g>
</g>
<g>
</g>
<g>
</g>
<g>
</g>
<g>
</g>
<g>
</g>
<g>
</g>
<g>
</g>
<g>
</g>
<g>
</g>
<g>
</g>
</svg>
